<mxfile host="app.diagrams.net" modified="2023-06-14T18:31:35.276Z" agent="Mozilla/5.0 (Macintosh; Intel Mac OS X 10_15_7) AppleWebKit/537.36 (KHTML, like Gecko) Chrome/114.0.0.0 Safari/537.36" etag="miptM1KAA_MgCsfzmumq" version="21.3.8" type="github">
  <diagram id="prtHgNgQTEPvFCAcTncT" name="Page-1">
    <mxGraphModel dx="1304" dy="727" grid="1" gridSize="10" guides="1" tooltips="1" connect="1" arrows="1" fold="1" page="1" pageScale="1" pageWidth="827" pageHeight="1169" math="0" shadow="0">
      <root>
        <mxCell id="0" />
        <mxCell id="1" parent="0" />
        <mxCell id="dNxyNK7c78bLwvsdeMH5-11" value="Banking Application" style="swimlane;html=1;startSize=20;horizontal=1;containerType=tree;glass=0;strokeWidth=1;verticalAlign=middle;" parent="1" vertex="1">
          <mxGeometry x="40" y="80" width="720" height="600" as="geometry" />
        </mxCell>
        <mxCell id="W_EmYKKKbLou7GbKtM4T-2" value="&lt;p style=&quot;line-height: 100%;&quot;&gt;&lt;b style=&quot;&quot;&gt;&lt;font style=&quot;font-size: 19px;&quot;&gt;Client Side UI&lt;/font&gt;&lt;br&gt;&lt;/b&gt;&lt;font style=&quot;font-size: 13px;&quot;&gt;&lt;i&gt;&lt;br&gt;&lt;/i&gt;&lt;/font&gt;&lt;/p&gt;&lt;p style=&quot;line-height: 100%;&quot;&gt;&lt;font style=&quot;font-size: 13px;&quot;&gt;&lt;i&gt;ReactJS&lt;/i&gt;&lt;/font&gt;&lt;/p&gt;" style="rounded=1;whiteSpace=wrap;html=1;fillColor=#fff2cc;strokeColor=#d6b656;" parent="dNxyNK7c78bLwvsdeMH5-11" vertex="1">
          <mxGeometry x="40" y="50" width="640" height="100" as="geometry" />
        </mxCell>
        <mxCell id="W_EmYKKKbLou7GbKtM4T-4" value="&lt;font style=&quot;&quot;&gt;&lt;b style=&quot;&quot;&gt;&lt;br&gt;&lt;font style=&quot;font-size: 19px;&quot;&gt;Accounts&lt;/font&gt;&lt;/b&gt;&lt;/font&gt;" style="rounded=1;whiteSpace=wrap;html=1;fillColor=#d5e8d4;strokeColor=#82b366;verticalAlign=top;labelPosition=center;verticalLabelPosition=middle;align=center;" parent="dNxyNK7c78bLwvsdeMH5-11" vertex="1">
          <mxGeometry x="40" y="230" width="240" height="320" as="geometry" />
        </mxCell>
        <mxCell id="W_EmYKKKbLou7GbKtM4T-5" value="&lt;font style=&quot;&quot;&gt;&lt;b style=&quot;&quot;&gt;&lt;br&gt;&lt;font style=&quot;font-size: 19px;&quot;&gt;User Auth&lt;/font&gt;&lt;/b&gt;&lt;/font&gt;" style="rounded=1;whiteSpace=wrap;html=1;fillColor=#d5e8d4;strokeColor=#82b366;verticalAlign=top;" parent="dNxyNK7c78bLwvsdeMH5-11" vertex="1">
          <mxGeometry x="440" y="230" width="240" height="320" as="geometry" />
        </mxCell>
        <mxCell id="W_EmYKKKbLou7GbKtM4T-6" value="&lt;font style=&quot;&quot;&gt;&lt;b&gt;&lt;span style=&quot;font-size: 17px;&quot;&gt;Server-Side &lt;/span&gt;&lt;br&gt;&lt;/b&gt;&lt;span style=&quot;font-size: 17px;&quot;&gt;&lt;b&gt;APIs&lt;/b&gt;&lt;br&gt;&lt;/span&gt;&lt;br&gt;&lt;font style=&quot;font-size: 14px;&quot;&gt;(NodeJS + Express)&lt;/font&gt;&lt;br&gt;&lt;/font&gt;" style="rounded=1;whiteSpace=wrap;html=1;fillColor=#dae8fc;strokeColor=#6c8ebf;" parent="dNxyNK7c78bLwvsdeMH5-11" vertex="1">
          <mxGeometry x="65" y="280" width="190" height="130" as="geometry" />
        </mxCell>
        <mxCell id="W_EmYKKKbLou7GbKtM4T-7" value="&lt;span style=&quot;color: rgb(0, 0, 0); font-family: Helvetica; font-style: normal; font-variant-ligatures: normal; font-variant-caps: normal; letter-spacing: normal; orphans: 2; text-align: center; text-indent: 0px; text-transform: none; widows: 2; word-spacing: 0px; -webkit-text-stroke-width: 0px; background-color: rgb(251, 251, 251); text-decoration-thickness: initial; text-decoration-style: initial; text-decoration-color: initial; float: none; display: inline !important;&quot;&gt;&lt;font style=&quot;&quot;&gt;&lt;b&gt;&lt;span style=&quot;font-size: 17px;&quot;&gt;Server-Side &lt;/span&gt;&lt;br&gt;&lt;/b&gt;&lt;span style=&quot;font-size: 17px;&quot;&gt;&lt;b&gt;APIs&lt;/b&gt;&lt;br&gt;&lt;/span&gt;&lt;br&gt;&lt;font style=&quot;font-weight: 400; font-size: 14px;&quot;&gt;(NodeJS + Express)&lt;/font&gt;&lt;br&gt;&lt;/font&gt;&lt;/span&gt;" style="rounded=1;whiteSpace=wrap;html=1;fillColor=#dae8fc;strokeColor=#6c8ebf;" parent="dNxyNK7c78bLwvsdeMH5-11" vertex="1">
          <mxGeometry x="465" y="280" width="190" height="130" as="geometry" />
        </mxCell>
        <mxCell id="W_EmYKKKbLou7GbKtM4T-8" value="&lt;font style=&quot;&quot;&gt;&lt;span style=&quot;font-size: 17px;&quot;&gt;&lt;b&gt;Database&lt;/b&gt;&lt;br&gt;&lt;/span&gt;&lt;br&gt;&lt;font style=&quot;font-size: 14px;&quot;&gt;(NodeJS + Express)&lt;/font&gt;&lt;br&gt;&lt;/font&gt;" style="rounded=1;whiteSpace=wrap;html=1;fillColor=#f5f5f5;fontColor=#333333;strokeColor=#666666;" parent="dNxyNK7c78bLwvsdeMH5-11" vertex="1">
          <mxGeometry x="65" y="435" width="190" height="70" as="geometry" />
        </mxCell>
        <mxCell id="W_EmYKKKbLou7GbKtM4T-9" value="&lt;font style=&quot;&quot;&gt;&lt;span style=&quot;font-size: 17px;&quot;&gt;&lt;b&gt;Database&lt;/b&gt;&lt;br&gt;&lt;/span&gt;&lt;br&gt;&lt;font style=&quot;font-size: 14px;&quot;&gt;PostgreSQL&lt;/font&gt;&lt;br&gt;&lt;/font&gt;" style="rounded=1;whiteSpace=wrap;html=1;fillColor=#f5f5f5;fontColor=#333333;strokeColor=#666666;" parent="dNxyNK7c78bLwvsdeMH5-11" vertex="1">
          <mxGeometry x="465" y="435" width="190" height="70" as="geometry" />
        </mxCell>
        <mxCell id="07pTWyjCVWl16_RxVCYl-3" value="&lt;b&gt;&lt;font style=&quot;font-size: 14px;&quot;&gt;gRPC&lt;/font&gt;&lt;/b&gt;" style="shape=flexArrow;endArrow=classic;startArrow=classic;html=1;rounded=0;entryX=0;entryY=0.5;entryDx=0;entryDy=0;" edge="1" parent="dNxyNK7c78bLwvsdeMH5-11" source="W_EmYKKKbLou7GbKtM4T-6" target="W_EmYKKKbLou7GbKtM4T-7">
          <mxGeometry width="100" height="100" relative="1" as="geometry">
            <mxPoint x="310" y="395" as="sourcePoint" />
            <mxPoint x="410" y="295" as="targetPoint" />
          </mxGeometry>
        </mxCell>
        <mxCell id="07pTWyjCVWl16_RxVCYl-13" value="" style="endArrow=classic;startArrow=classic;html=1;rounded=0;" edge="1" parent="dNxyNK7c78bLwvsdeMH5-11">
          <mxGeometry width="50" height="50" relative="1" as="geometry">
            <mxPoint x="160" y="230" as="sourcePoint" />
            <mxPoint x="360" y="150" as="targetPoint" />
            <Array as="points">
              <mxPoint x="330" y="180" />
            </Array>
          </mxGeometry>
        </mxCell>
        <mxCell id="07pTWyjCVWl16_RxVCYl-14" value="" style="endArrow=classic;startArrow=classic;html=1;rounded=0;exitX=0.5;exitY=1;exitDx=0;exitDy=0;entryX=0.5;entryY=0;entryDx=0;entryDy=0;" edge="1" parent="dNxyNK7c78bLwvsdeMH5-11" source="W_EmYKKKbLou7GbKtM4T-2" target="W_EmYKKKbLou7GbKtM4T-5">
          <mxGeometry width="50" height="50" relative="1" as="geometry">
            <mxPoint x="360" y="230" as="sourcePoint" />
            <mxPoint x="560" y="150" as="targetPoint" />
            <Array as="points">
              <mxPoint x="390" y="180" />
            </Array>
          </mxGeometry>
        </mxCell>
        <mxCell id="07pTWyjCVWl16_RxVCYl-11" value="&lt;b&gt;&lt;font style=&quot;font-size: 14px;&quot;&gt;HTTP/RESTful APIs&lt;/font&gt;&lt;/b&gt;" style="rounded=0;whiteSpace=wrap;html=1;" vertex="1" parent="dNxyNK7c78bLwvsdeMH5-11">
          <mxGeometry x="290" y="170" width="140" height="30" as="geometry" />
        </mxCell>
      </root>
    </mxGraphModel>
  </diagram>
</mxfile>
